<?xml version="1.0" encoding="UTF-8"?>
<svg width="30px" height="30px" viewBox="0 0 30 30" version="1.1" xmlns="http://www.w3.org/2000/svg" xmlns:xlink="http://www.w3.org/1999/xlink">
    <title>icon/logo</title>
    <g transform="translate(3, 0)">
      <path d="M6.80884774,0.0230094266 C7.18545587,1.48952917 7.36603009,3.00016804 7.57410228,4.49694089 C8.58899276,11.7962612 9.09916246,19.1621383 10.1758917,26.4546516 C10.3317558,27.5107375 10.464557,28.5675796 10.6910034,29.5922778 C9.93905434,29.7280387 9.14528808,29.8346809 8.30564964,29.9095574 C6.50180821,30.070151 4.47950365,30.0168299 2.23911612,29.7499722 C2.08642002,29.7316943 1.93815908,29.6990461 1.79560049,29.6539185 C1.97706174,28.8040581 2.08401237,27.9257094 2.21770065,27.0628653 C3.10777316,21.3170425 3.60222973,15.486637 4.26471536,9.69808161 C4.63118599,6.4944028 4.93138272,3.27358056 5.65824148,0.1389797 L5.66863241,0.0927176454 C6.05639179,0.0620863666 6.43680149,0.0383880933 6.80884774,0.0230094266 Z M10.9335685,0.207603849 C13.0046597,0.520093314 14.7569266,1.05305235 16.1950577,1.80358171 C16.1385412,2.20090595 16.0855727,2.59835625 16.0250012,2.99126858 C14.8453763,10.6425334 14.3685337,18.3832971 13.2615186,26.0567476 C13.1145249,27.0747649 12.9703189,28.0990849 12.7626269,29.107396 C12.307073,29.2407618 11.8312441,29.3601356 11.33476,29.465013 C11.2066474,28.8570515 11.109961,28.237619 11.008586,27.6242371 C9.96442344,21.3020924 9.48213187,14.892844 8.7322103,8.52594988 C8.40451561,5.74581468 8.10824716,2.96013308 7.50671325,0.22852892 C7.49023981,0.153778515 7.47224575,0.0790281109 7.45450512,0.00427770632 C8.70826045,-0.0181600205 9.87014469,0.047388395 10.9335685,0.207603849 Z M4.97028537,0.155291171 C4.65805037,1.45907437 4.49775115,2.82348985 4.30843333,4.16584576 C3.23512551,11.7818153 2.74725831,19.2853441 1.61781408,26.7322744 C1.48450595,27.6117577 1.37426064,28.5030901 1.19317954,29.3668165 C0.501041719,28.9120113 0.0415595257,28.1133291 0.0201440567,27.1967858 C0.00983511354,26.7556909 0.0024108855,26.2506798 0.000489831284,25.6826357 L0.0005001483,25.0936133 C0.00933437715,22.4504188 0.137895593,18.6291333 0.599248752,13.7016276 C1.1584586,7.72802398 1.74985502,4.22609988 2.1471183,2.3405745 C2.38687018,1.20267922 3.29189551,0.343616811 4.38446458,0.216175565 C4.58265271,0.19298151 4.77577209,0.174829641 4.97028537,0.155291171 Z M16.7986318,2.14202583 C17.6304137,2.64120222 18.3701978,3.19710321 19.0208986,3.80821613 C19.0328101,3.89380723 19.0442148,3.9797765 19.0565065,4.06524155 C19.9553226,10.3563768 20.4706878,16.6308728 21.2463333,22.8927634 L21.2264384,22.9260418 C20.569275,23.9749425 19.6732467,25.0038005 18.53772,26.0128679 C17.4020665,27.0218093 16.0018243,27.8712916 14.3367399,28.5606844 C14.054664,28.677411 13.7590291,28.7846835 13.4571851,28.8876702 C13.4834158,28.7285892 13.5096466,28.5700125 13.5375248,28.4129484 C14.6327549,22.2597169 15.0884356,15.9886244 15.8011018,9.7612728 L16.0474852,7.57781818 C16.2543748,5.75861077 16.4764947,3.94208616 16.7986318,2.14202583 Z M19.8191253,4.63808428 C20.0147791,4.86384815 20.2034633,5.09402393 20.377955,5.33277143 C21.3041424,6.60176354 21.9922252,7.89067229 22.4423302,9.19924556 C22.8916749,10.508197 23.1957999,11.7466839 23.3547052,12.9154626 C23.5128502,14.0844933 23.5820387,15.0135161 23.5621438,15.7029089 C23.5419955,16.3923018 23.4723002,17.1370326 23.3770077,17.6959589 C23.2810816,18.2556415 23.0629987,19.0049104 22.7227588,19.9438914 C22.4873154,20.5928207 22.1711521,21.2696081 21.7849133,21.9708501 C21.1193864,16.2522551 20.6839808,10.4014287 19.8191253,4.63808428 Z" fill="#DB0B17"></path>
    </g>
</svg>